<?xml version="1.0" standalone="no"?>
<!DOCTYPE svg PUBLIC "-//W3C//DTD SVG 20010904//EN"
 "http://www.w3.org/TR/2001/REC-SVG-20010904/DTD/svg10.dtd">
<svg version="1.0" xmlns="http://www.w3.org/2000/svg"
 width="470.000000pt" height="500.000000pt" viewBox="0 0 470.000000 500.000000"
 preserveAspectRatio="xMidYMid meet">
<metadata>
Created by potrace 1.11, written by Peter Selinger 2001-2013
</metadata>
<g transform="translate(0.000000,500.000000) scale(0.100000,-0.100000)"
fill="#000000" stroke="none">
<path d="M4680 4036 l0 -945 -32 -4 -33 -4 33 -1 32 -2 0 -194 c0 -194 0 -195
-22 -199 l-23 -4 22 -2 23 -1 0 -395 c0 -307 -3 -395 -13 -395 -9 0 -9 -2 0
-8 10 -6 13 -211 16 -948 1 -516 3 183 5 1554 1 1370 0 2492 -3 2492 -3 0 -5
-425 -5 -944z"/>
<path d="M1607 4591 c442 -229 786 -571 1019 -1015 35 -66 64 -117 64 -112 0
19 -122 240 -184 334 -226 341 -536 618 -895 801 -66 34 -123 61 -128 61 -4 0
51 -31 124 -69z"/>
<path d="M702 3338 l-2 -48 -347 -3 c-192 -1 78 -3 600 -5 l947 -2 0 -95 0
-95 -945 2 c-520 2 -945 0 -945 -4 0 -5 395 -8 878 -8 630 0 873 -3 862 -11
-12 -9 -11 -10 5 -4 11 3 48 9 82 12 l63 6 0 -596 0 -596 -27 -4 -28 -4 28 -2
28 -1 -3 -95 c-2 -52 0 -95 5 -95 4 0 7 42 7 94 0 66 4 96 13 99 10 4 10 6 0
6 -10 1 -13 127 -13 595 l0 595 33 4 32 4 -32 1 -33 2 0 100 0 100 -249 0
-250 0 -4 48 -3 47 -2 -47 -2 -48 -144 0 -145 0 -4 48 -3 47 -2 -47 -2 -48
-144 0 -145 0 -4 48 -3 47 -2 -47 -2 -48 -44 0 -45 0 -4 48 -3 47 -2 -47z"/>
<path d="M10 1888 c0 -5 390 -7 868 -6 477 2 728 4 557 5 -811 7 -1425 7
-1425 1z"/>
</g>
</svg>
